<?xml version="1.0" encoding="UTF-8" standalone="no"?>
<svg width="50px" height="50px" viewBox="0 0 50 50" version="1.1" xmlns="http://www.w3.org/2000/svg" xmlns:xlink="http://www.w3.org/1999/xlink">
    <!-- Generator: Sketch 3.6.1 (26313) - http://www.bohemiancoding.com/sketch -->
    <title>Group 31 Copy 2</title>
    <desc>Created with Sketch.</desc>
    <defs></defs>
    <g id="Welcome" stroke="none" stroke-width="1" fill="none" fill-rule="evenodd">
        <g id="Home-o-qué?-Copy-2" transform="translate(-695.000000, -2870.000000)">
            <g id="Info" transform="translate(0.000000, 2322.000000)">
                <g id="3" transform="translate(487.000000, 534.000000)">
                    <g id="Group-31-Copy-2" transform="translate(208.000000, 14.000000)">
                        <rect id="Rectangle-355" fill="#589DFF" x="0" y="0" width="50" height="50"></rect>
                        <path d="M38.0641942,9.00943089 L35.1752864,11.1806314 L32.2699934,17.9818752 L29.9336945,17.9818752 L29.0163324,15.9858796 L29.6156965,15.9858796 C30.7120433,15.9858796 31.6036274,15.1002142 31.6036274,13.9994198 L31.6036274,11.9938885 L32.5975929,11.9938885 L32.5975929,9 L29.6156965,9 L29.6156965,11.9938885 L30.609662,11.9938885 L30.609662,13.9994198 C30.609662,14.5493454 30.1639221,14.9878818 29.6156965,14.9878818 L28.5576514,14.9878818 L27.2873293,12.2285081 L28.809065,11.4670161 L23.8264009,9.32431784 L22.6550161,13.4404823 C22.623185,10.9914897 20.6318101,9.00901174 18.1851981,9.00901174 C15.7187569,9.00901174 13.7124579,11.0234499 13.7124579,13.4998969 C13.7124579,14.9963697 14.4673248,16.4000005 15.7003888,17.2298141 L15.7003888,17.9817704 L14.4967555,17.9817704 L14.4192129,18.3909662 C14.1777139,19.6489422 14.1552756,20.9418125 14.3526284,22.2312248 L10.9622503,28.2989548 L14.7064234,29.1576898 L14.7064234,35.446417 L19.6761463,35.446417 L19.6761463,39.9373022 L31.6035231,39.9373022 L31.6035231,32.9839068 C35.0822978,30.5129087 37.0691851,26.539989 37.0662629,22.3015373 L37.0673065,20.4812707 C37.0673065,19.795121 37.0041661,19.0901096 36.8769461,18.3954721 L36.8033693,17.9817704 L35.8277719,17.9817704 L38.0641942,12.602181 L38.0641942,9.00943089 L38.0641942,9.00943089 Z M30.6095576,11.0054264 L30.6095576,10.0074287 L31.6035231,10.0074287 L31.6035231,11.0054264 L30.6095576,11.0054264 L30.6095576,11.0054264 Z M28.8389131,17.9817704 L26.9538854,17.9817704 L26.0504038,15.9857748 L27.9215511,15.9857748 L28.8389131,17.9817704 L28.8389131,17.9817704 Z M24.4714765,10.6890725 L26.4469881,11.5389005 L25.9807928,11.7683855 L27.4627657,14.9878818 L25.5986108,14.9878818 L24.3874633,12.3188351 L23.9426627,12.5443382 L24.4714765,10.6890725 L24.4714765,10.6890725 Z M25.8620263,17.9818752 L23.6520081,17.9818752 L23.6520081,16.9934131 C23.6520081,16.4430682 24.097748,15.9859844 24.6459736,15.9859844 L24.9585446,15.9859844 L24.9585446,15.9858796 L25.8620263,17.9818752 L25.8620263,17.9818752 Z M23.9104141,13.6789791 L24.5132222,15.0108303 C23.479494,15.0807237 22.6580427,15.9379917 22.6580427,16.9933083 L22.6580427,17.9817704 L20.6701118,17.9817704 L20.6701118,17.2298141 C21.664599,16.56064 22.3394185,15.5163261 22.567037,14.3531829 L23.9104141,13.6789791 L23.9104141,13.6789791 Z M14.7065277,13.5004209 C14.7065277,11.5748426 16.2675044,10.0075335 18.1853025,10.0075335 C20.1031006,10.0075335 21.6640772,11.5748426 21.6640772,13.5004209 C21.6640772,14.7399542 20.9971894,15.8980676 19.9242202,16.5222877 L19.6762507,16.6659516 L19.6762507,17.9817704 L18.6822852,17.9817704 L18.6822852,14.9049948 C19.2593153,14.6984583 19.6762507,14.1494757 19.6762507,13.4997921 C19.6762507,12.6744844 19.0072756,12.0027955 18.1853025,12.0027955 C17.3633294,12.0027955 16.6943543,12.6745892 16.6943543,13.4998969 C16.6943543,14.1495805 17.1112896,14.6984583 17.6883197,14.9050996 L17.6883197,17.9818752 L16.6943543,17.9818752 L16.6943543,16.6659516 L16.4463847,16.5217638 C15.3734155,15.8975436 14.7065277,14.7398494 14.7065277,13.5004209 L14.7065277,13.5004209 Z M18.1853025,13.9994198 C17.9109288,13.9994198 17.6883197,13.7752789 17.6883197,13.5004209 C17.6883197,13.2249341 17.9109288,13.001422 18.1853025,13.001422 C18.4596762,13.001422 18.6822852,13.2249341 18.6822852,13.5004209 C18.6822852,13.7759077 18.4596762,13.9994198 18.1853025,13.9994198 L18.1853025,13.9994198 Z M35.9668895,18.9798729 C36.0390052,19.478767 36.075324,19.9847867 36.075324,20.4767648 L36.0763676,22.3005942 C36.0793942,26.2980343 34.1148409,30.0413642 30.8283052,32.3132657 L30.609662,32.4630073 L30.609662,38.9394092 L20.6702161,38.9394092 L20.6702161,34.4485241 L15.7003888,34.4485241 L15.7003888,28.3618274 L12.4794982,27.6238079 L15.3887571,22.4158607 L15.3604744,22.2377216 C15.1756452,21.1459389 15.1652088,19.9777659 15.325721,18.9798729 L15.7003888,18.9798729 L20.6701118,18.9798729 L35.9668895,18.9798729 L35.9668895,18.9798729 Z M34.7508368,17.9817704 L33.3508943,17.9817704 L35.8282937,12.1825063 L36.9300675,12.7333751 L34.7508368,17.9817704 L34.7508368,17.9817704 Z M37.0702287,11.6945102 L36.520542,11.4186042 L37.0702287,11.0054264 L37.0702287,11.6945102 Z M19.1792679,21.9737615 C18.3572948,21.9737615 17.6883197,21.4747626 17.6883197,20.4767648 L16.6943543,20.4767648 C16.6943543,21.9737615 17.8090692,22.9717592 19.1792679,22.9717592 C20.5494666,22.9717592 21.6641816,21.9737615 21.6641816,20.4767648 L20.6702161,20.4767648 C20.6701118,21.4747626 20.0012411,21.9737615 19.1792679,21.9737615 Z" id="Shape" fill="#FFFFFF"></path>
                    </g>
                </g>
            </g>
        </g>
    </g>
</svg>