<?xml version="1.0" encoding="UTF-8" standalone="no"?>
<svg width="50px" height="50px" viewBox="0 0 50 50" version="1.1" xmlns="http://www.w3.org/2000/svg" xmlns:xlink="http://www.w3.org/1999/xlink">
    <!-- Generator: Sketch 3.6.1 (26313) - http://www.bohemiancoding.com/sketch -->
    <title>Group 31 Copy 3</title>
    <desc>Created with Sketch.</desc>
    <defs></defs>
    <g id="Welcome" stroke="none" stroke-width="1" fill="none" fill-rule="evenodd">
        <g id="Home-o-qué?-Copy-2" transform="translate(-695.000000, -2985.000000)">
            <g id="Info" transform="translate(0.000000, 2322.000000)">
                <g id="4" transform="translate(354.000000, 649.000000)">
                    <g id="Group-31-Copy-3" transform="translate(341.000000, 14.000000)">
                        <rect id="Rectangle-355" fill="#589DFF" x="0" y="0" width="50" height="50"></rect>
                        <path d="M34.6407101,21.533426 C34.2691834,20.7336805 34.2684024,19.8063609 34.638497,18.9892367 C35.0016923,18.1876686 35.0703609,17.4256746 34.8426154,16.7244083 C34.6108343,16.0113609 34.0946154,15.4279704 33.308213,14.990574 C32.5375621,14.5619645 31.991858,13.8122071 31.8110414,12.9335089 C31.6335444,12.0715385 31.2412544,11.4147929 30.6449112,10.981497 C30.0216213,10.5286095 29.2370414,10.3630888 28.3128462,10.4896213 C27.4573195,10.6065858 26.5748462,10.3454497 25.8914142,9.77286391 C25.2794497,9.26002959 24.622574,9 23.9390118,9 C23.2123609,9 22.5179941,9.29244379 21.8752426,9.86919527 C21.2242249,10.4533018 20.3614734,10.7329882 19.5075089,10.6361361 C18.6294615,10.5365503 17.8814615,10.7067574 17.2833609,11.1411598 C16.6956095,11.5682722 16.3056627,12.2129763 16.1245858,13.0574379 C15.9412308,13.912574 15.4073077,14.645929 14.6598284,15.0695917 C13.8912604,15.5051657 13.3857811,16.082503 13.1573195,16.7854615 C12.9328284,17.4765089 12.996355,18.2272426 13.3462722,19.0168343 C13.7004852,19.8163846 13.6997041,20.7235917 13.3439941,21.505568 C12.9781953,22.3096746 12.9086154,23.0739467 13.1369467,23.7769053 C13.3614379,24.4678876 13.8542249,25.0379349 14.6013787,25.4711006 C15.3580355,25.9097337 15.8905917,26.6440651 16.062426,27.485858 C16.2390769,28.3514083 16.6319527,29.0106272 17.2300533,29.4452249 C17.5402012,29.6705621 17.8937633,29.824497 18.2857929,29.9067692 L18.2857929,41.0236686 C18.2857929,41.2753669 18.4308757,41.5045444 18.6584911,41.612071 C18.8859763,41.7196627 19.1551183,41.6864675 19.3497337,41.5266746 L24,37.7086331 L28.6501361,41.5266746 C28.768858,41.6241775 28.9153728,41.6744911 29.0633195,41.6744911 C29.1576982,41.6744911 29.2527278,41.6539882 29.3413787,41.6120059 C29.568929,41.5044793 29.7140769,41.2753018 29.7140769,41.0236036 L29.7140769,30.0499645 C30.0774675,29.9643728 30.4072071,29.8162959 30.6981538,29.6049527 C31.3046509,29.1642367 31.7,28.4930414 31.8730059,27.6099172 C32.042497,26.744497 32.5869645,25.9938284 33.3667278,25.5503136 C34.131716,25.1151302 34.6350473,24.5390947 34.8629231,23.8379586 C35.094574,23.1249763 35.019787,22.349574 34.6407101,21.533426 L34.6407101,21.533426 Z M28.4122367,39.6470414 L24.4129882,36.3634438 C24.2928994,36.2648343 24.1464497,36.2156272 23.9999349,36.2156272 C23.8534201,36.2156272 23.7069704,36.2648994 23.5868817,36.3634438 L19.5876331,39.6470414 L19.5876331,29.9555207 C20.3962959,29.9614438 21.1683136,30.2707456 21.7393373,30.8261479 C22.4189941,31.4872544 23.1591183,31.8225266 23.9390118,31.8225266 C24.6888994,31.8225266 25.4031834,31.511858 26.0620769,30.8990473 C26.6912899,30.3140296 27.5446036,30.027574 28.4122367,30.1049645 L28.4122367,39.6470414 L28.4122367,39.6470414 Z M33.6248698,23.4357101 C33.5005503,23.8183669 33.1971065,24.1491479 32.7231302,24.4188107 C31.613497,25.0499112 30.8380296,26.121858 30.5955089,27.3596509 C30.487787,27.9096509 30.264858,28.3107278 29.9330355,28.5518166 C29.6951361,28.7246272 29.3938402,28.8193314 29.0376746,28.8333905 C28.906716,28.8383373 28.7683373,28.8329349 28.6255976,28.8170533 C27.3568876,28.6751598 26.099503,29.0868462 25.1756982,29.9456923 C24.7653787,30.3272426 24.3493314,30.5207515 23.9390118,30.5207515 C23.5098817,30.5207515 23.0752189,30.3096036 22.647,29.8930355 C21.8262308,29.0945917 20.7184201,28.6527692 19.5627692,28.6527692 C19.4435266,28.6527692 19.3236331,28.6574556 19.2036746,28.6669586 C19.1186686,28.6737278 19.0323609,28.6767219 18.9470947,28.6750947 C18.5656746,28.6690414 18.2453728,28.5738166 17.9952367,28.3920888 C17.6686213,28.1547751 17.4475148,27.7622899 17.3379053,27.225503 C17.0916746,26.0197988 16.3322189,24.9699172 15.254284,24.3449349 C14.7931302,24.0776154 14.4973018,23.7511953 14.375,23.3747219 C14.2502899,22.9908284 14.3020355,22.5433432 14.5288698,22.044568 C15.0383846,20.9243905 15.0411183,19.6286686 14.536355,18.4894201 C14.3204556,18.0021657 14.2729408,17.5641834 14.3953077,17.1877101 C14.5200178,16.8038166 14.8249586,16.4722544 15.3016036,16.202071 C16.3722485,15.5953136 17.1361302,14.5485562 17.3972663,13.3302899 C17.5090888,12.8091243 17.7281124,12.4269231 18.0484142,12.1942308 C18.3749645,11.9569172 18.8165917,11.8681361 19.360929,11.9295799 C20.5837515,12.0681538 21.8169231,11.6702663 22.7444379,10.8380414 C23.1410888,10.4821361 23.5429467,10.3017101 23.9388817,10.3017101 C24.3083905,10.3017101 24.6838876,10.4594201 25.0550888,10.7705444 C26.0192485,11.578426 27.2712308,11.9463728 28.4892367,11.7792249 C29.0693077,11.6999467 29.5371657,11.7857337 29.8795325,12.034503 C30.2050414,12.2710355 30.4258225,12.6618284 30.5357574,13.1959467 C30.7931834,14.4463018 31.5729467,15.5150592 32.6752249,16.1281953 C33.1648876,16.4005917 33.4775089,16.7365148 33.6043018,17.1266568 C33.7286213,17.5093787 33.6775917,17.9552367 33.4525148,18.4519941 C32.9258166,19.6148047 32.9284852,20.9377988 33.4598698,22.0817988 C33.696142,22.5900769 33.7515976,23.0456331 33.6248698,23.4357101 L33.6248698,23.4357101 Z M25.5862781,15.1816095 C25.0737041,15.0263077 24.5399763,14.9475503 24,14.9475503 C23.6405799,14.9475503 23.3491124,15.2390178 23.3491124,15.5984379 C23.3491124,15.957858 23.6405799,16.2493254 24,16.2493254 C24.4120118,16.2493254 24.8187515,16.3092722 25.2088284,16.4274083 C25.2717692,16.4464793 25.3352308,16.4555917 25.3977811,16.4555917 C25.6770769,16.4555917 25.935284,16.2743846 26.0204201,15.9932012 C26.1246923,15.6492071 25.9303373,15.2858166 25.5862781,15.1816095 L25.5862781,15.1816095 Z M21.5405562,15.5312663 C19.6874142,16.466787 18.5362544,18.3367219 18.5362544,20.4112959 C18.5362544,20.770716 18.8277219,21.0621834 19.187142,21.0621834 C19.5465621,21.0621834 19.8380296,20.770716 19.8380296,20.4112959 C19.8380296,18.8308757 20.7152308,17.406213 22.1272663,16.6933609 C22.4481538,16.531355 22.5769645,16.1399112 22.4149586,15.8189586 C22.2528876,15.4979408 21.8613787,15.3691953 21.5405562,15.5312663 L21.5405562,15.5312663 Z M24,12.5719408 C19.6773254,12.5719408 16.160645,16.0886213 16.160645,20.4112308 C16.160645,24.7339053 19.6773254,28.2505858 24,28.2505858 C28.3226746,28.2505858 31.839355,24.7339053 31.839355,20.4112308 C31.839355,16.0886213 28.3226746,12.5719408 24,12.5719408 L24,12.5719408 Z M24,26.9488757 C20.3951243,26.9488757 17.4624201,24.0161065 17.4624201,20.4112959 C17.4624201,16.8064852 20.3951893,13.8737811 24,13.8737811 C27.6048107,13.8737811 30.5375799,16.8065503 30.5375799,20.4112959 C30.5375799,24.0161065 27.6048107,26.9488757 24,26.9488757 L24,26.9488757 Z" id="Shape" fill="#FFFFFF"></path>
                    </g>
                </g>
            </g>
        </g>
    </g>
</svg>