<?xml version="1.0" encoding="UTF-8" standalone="no"?>
<svg width="36px" height="36px" viewBox="0 0 36 36" version="1.1" xmlns="http://www.w3.org/2000/svg" xmlns:xlink="http://www.w3.org/1999/xlink">
    <!-- Generator: Sketch 3.6.1 (26313) - http://www.bohemiancoding.com/sketch -->
    <title>customer-service (2)</title>
    <desc>Created with Sketch.</desc>
    <defs></defs>
    <g id="Welcome" stroke="none" stroke-width="1" fill="none" fill-rule="evenodd">
        <g id="Home-o-qué?-Copy-2" transform="translate(-702.000000, -3353.000000)">
            <g id="Contacto" transform="translate(0.000000, 3110.000000)">
                <g id="Info-contacto" transform="translate(278.000000, 112.000000)">
                    <g id="Contact" transform="translate(369.000000, 130.000000)">
                        <g id="customer-service-(2)" transform="translate(55.000000, 0.000000)">
                            <g id="Layer_1">
                                <path d="M31.5937843,17.6912217 C31.5937843,25.4739868 25.3235184,31.7805088 17.5877336,31.7805088 C9.85149312,31.7805088 3.58168299,25.473643 3.58168299,17.6912217 C3.58168299,9.91017546 9.85149312,3.60285133 17.5877336,3.60285133 C25.3235184,3.60239294 31.5937843,9.91017546 31.5937843,17.6912217 L31.5937843,17.6912217 Z" id="Shape" fill="#F3F9FF"></path>
                                <path d="M31.5937843,17.6912217 L22.0439868,9.04622596 C22.0439868,9.04622596 20.0110121,12.4334947 14.5864045,14.9019219 C9.35694882,17.2807339 3.58168299,17.6908779 3.58168299,17.6908779 C3.58168299,9.90983167 9.85149312,3.60250754 17.5877336,3.60250754 C25.3235184,3.60239294 31.5937843,9.91017546 31.5937843,17.6912217 L31.5937843,17.6912217 Z" id="Shape" fill="#C5E0FF"></path>
                                <g id="Group" transform="translate(11.456797, 17.712766)" fill="#1254B1">
                                    <ellipse id="Oval" cx="1.93158228" cy="2.07146189" rx="1.91882278" ry="2.03903084"></ellipse>
                                    <ellipse id="Oval" cx="10.2476962" cy="2.07146189" rx="1.91882278" ry="2.03903084"></ellipse>
                                </g>
                                <g id="Group" transform="translate(13.165658, 18.171155)" fill="#FFFFFF">
                                    <path d="M9.90637975,0.840915432 C9.90637975,1.29048088 9.56346835,1.65604646 9.13864557,1.65604646 C8.71644304,1.65604646 8.37307595,1.29002249 8.37307595,0.840915432 C8.37307595,0.389631026 8.71644304,0.0249822246 9.13864557,0.0249822246 C9.56335443,0.0248676273 9.90637975,0.389631026 9.90637975,0.840915432 L9.90637975,0.840915432 Z" id="Shape"></path>
                                    <path d="M1.57021519,0.840915432 C1.57021519,1.29048088 1.2273038,1.65604646 0.802139241,1.65604646 C0.379139241,1.65604646 0.0357721519,1.29002249 0.0357721519,0.840915432 C0.0357721519,0.389631026 0.379139241,0.0249822246 0.802139241,0.0249822246 C1.2273038,0.0248676273 1.57021519,0.389631026 1.57021519,0.840915432 L1.57021519,0.840915432 Z" id="Shape"></path>
                                </g>
                                <g id="Group" transform="translate(0.406164, 0.707514)">
                                    <path d="M5.89818987,17.5631118 C5.89818987,20.5882529 5.92849367,23.0394904 3.8311519,23.0394904 C1.73335443,23.0394904 0.0331518987,20.5877945 0.0331518987,17.5631118 C0.0331518987,14.538429 1.73346835,12.0862747 3.8311519,12.0862747 C5.92849367,12.0859309 5.89818987,14.538429 5.89818987,17.5631118 L5.89818987,17.5631118 Z" id="Shape" fill="#539AFF"></path>
                                    <path d="M34.3018481,17.5631118 C34.3018481,20.5882529 32.6015316,23.0394904 30.5033924,23.0394904 C28.4060506,23.0394904 28.4363544,20.5877945 28.4363544,17.5631118 C28.4363544,14.538429 28.4060506,12.0862747 30.5033924,12.0862747 C32.6011899,12.0859309 34.3018481,14.538429 34.3018481,17.5631118 L34.3018481,17.5631118 Z" id="Shape" fill="#539AFF"></path>
                                    <path d="M33.3285517,17.8413029 C33.4137669,17.167585 33.9649747,16.6121829 33.9649747,15.9135974 C33.9649747,6.91587099 26.1903021,-0.143996108 16.8112268,0.28037229 C7.43215146,0.704740688 0.583063291,6.91587099 0.583063291,15.913712 C0.583063291,16.6118391 1.21194615,16.9273808 1.2979588,17.6014425 C2.33580691,9.57469956 8.77055696,1.86121061 17.2740759,1.86121061 C25.7780506,1.86121061 32.2907036,9.81467453 33.3285517,17.8413029 Z" id="Shape" fill="#71ABFF"></path>
                                </g>
                                <path d="M23.8004678,33.3455649 C24.1340374,34.4388237 23.0080121,35.4775342 21.3572526,35.9871487 C19.7059235,36.4983675 18.1578096,36.2875083 17.82424,35.1943641 C17.4885058,34.1003031 18.4943412,32.5377681 20.146126,32.0278099 C21.7959741,31.5161326 23.4651893,32.2519623 23.8004678,33.3455649 L23.8004678,33.3455649 Z" id="Shape" fill="#24626C"></path>
                                <path d="M35.720683,18.4403446 L35.6252146,18.4403446 L35.6252146,18.3885466 C35.6252146,17.8108613 35.159607,17.3428457 34.5853159,17.3428457 C34.0110248,17.3428457 33.5454172,17.8108613 33.5454172,18.3885466 L33.5454172,19.8112728 C33.5454172,20.1837142 33.7396577,20.507681 34.0306197,20.6927557 C32.9327336,27.1621205 28.8854678,31.3922529 23.8808982,33.5568824 C23.8779362,33.5492044 23.8808982,33.541068 23.8779362,33.5332754 C23.6193286,32.6877761 22.0712146,32.4160657 20.4211387,32.9272845 C18.7698096,33.4377012 17.642645,34.5369191 17.9011387,35.3824184 C18.1592906,36.2271155 19.7062653,36.4988259 21.3574805,35.9874925 C22.1468602,35.7440877 22.8093286,35.3639682 23.2657083,34.9427083 C30.6467336,33.4938539 35.720683,26.6581213 35.720683,18.4403446 L35.720683,18.4403446 Z" id="Shape" fill="#549AFF"></path>
                            </g>
                        </g>
                    </g>
                </g>
            </g>
        </g>
    </g>
</svg>