<?xml version="1.0" encoding="UTF-8" standalone="no"?>
<svg width="50px" height="50px" viewBox="0 0 50 50" version="1.1" xmlns="http://www.w3.org/2000/svg" xmlns:xlink="http://www.w3.org/1999/xlink">
    <!-- Generator: Sketch 3.6.1 (26313) - http://www.bohemiancoding.com/sketch -->
    <title>Group 31 Copy</title>
    <desc>Created with Sketch.</desc>
    <defs></defs>
    <g id="Welcome" stroke="none" stroke-width="1" fill="none" fill-rule="evenodd">
        <g id="Home-o-qué?-Copy-2" transform="translate(-695.000000, -2755.000000)">
            <g id="Info" transform="translate(0.000000, 2322.000000)">
                <g id="2" transform="translate(333.000000, 419.000000)">
                    <g id="Group-31-Copy" transform="translate(362.000000, 14.000000)">
                        <rect id="Rectangle-355" fill="#589DFF" x="0" y="0" width="50" height="50"></rect>
                        <path d="M40.497429,19.5417558 L38.9043651,17.948692 C38.6355766,17.6799034 38.2750066,17.5291196 37.8947691,17.5291196 C37.5145316,17.5291196 37.1539616,17.6799034 36.8851731,17.948692 L36.6688311,18.165034 C34.5644134,16.7620889 32.1190932,16.0212814 29.5557682,16.0147256 L29.529545,16.0147256 C27.9364811,16.0147256 26.3958638,16.2966258 24.947028,16.8473145 L27.7398066,14.0545359 C28.0938208,14.2249872 28.480614,14.3102128 28.880519,14.3102128 C29.5885473,14.3102128 30.2572408,14.0348684 30.755483,13.5300704 C31.2537252,13.0318282 31.5356254,12.3631348 31.5356254,11.6551064 C31.5356254,10.947078 31.260281,10.2783846 30.755483,9.78014238 C30.250685,9.28190019 29.5885473,9 28.880519,9 C28.1724906,9 27.5037971,9.27534437 27.0055549,9.78014238 C26.5073127,10.2849404 26.2254126,10.947078 26.2254126,11.6551064 C26.2254126,12.0550113 26.317194,12.4483604 26.4810895,12.7958188 L21.4527768,17.8241314 L21.2823256,17.6536801 C21.013537,17.3848916 20.652967,17.2341078 20.2727295,17.2341078 C19.8924921,17.2341078 19.5319221,17.3848916 19.2631335,17.6536801 L17.6504022,19.2598556 C17.3816137,19.5286442 17.2308299,19.8892142 17.2308299,20.2694516 C17.2308299,20.6496891 17.3816137,21.0102591 17.6504022,21.2790477 L17.8208535,21.4494989 L12.7925409,26.4778116 C12.4385267,26.3073603 12.0517334,26.2221346 11.6518285,26.2221346 C10.9438001,26.2221346 10.2751067,26.497479 9.77686447,27.002277 C8.74104518,28.0380963 8.74104518,29.7229416 9.77686447,30.7522051 C10.2751067,31.2504473 10.9438001,31.5323475 11.6518285,31.5323475 C12.3598569,31.5323475 13.0285503,31.2570031 13.5267925,30.7522051 C14.339714,29.9392836 14.5167211,28.7199014 14.0447022,27.7365287 L16.8374808,24.9437501 C16.286792,26.3991417 15.998336,27.9528707 16.0048918,29.5524903 C16.0114477,32.1158153 16.7522551,34.5611355 18.1552002,36.6655532 L17.8864117,36.9343417 C17.3291671,37.4915863 17.3291671,38.402845 17.8864117,38.9600896 L19.4860314,40.5597092 C19.7548199,40.8284978 20.1153899,40.9792816 20.4956274,40.9792816 C20.8758648,40.9792816 21.2364348,40.8284978 21.5052234,40.5597092 L23.104843,38.9600896 C23.6620876,38.402845 23.6620876,37.4915863 23.104843,36.9343417 L21.5052234,35.3347221 C21.2364348,35.0659335 20.8758648,34.9151497 20.4956274,34.9151497 C20.1153899,34.9151497 19.7548199,35.0659335 19.4860314,35.3347221 L19.4401406,35.3806128 C17.1390484,31.6503522 17.2373857,26.8252699 19.7482641,23.1933466 C19.9121595,23.2589048 20.0826108,23.2916839 20.2661737,23.2916839 C20.6464112,23.2916839 21.0069812,23.1409 21.2757697,22.8721115 L22.8753894,21.2724918 C23.288406,20.8594753 23.3932991,20.25634 23.1966245,19.7449862 C26.8285478,17.2341078 31.6536301,17.1292147 35.3838907,19.4368627 L35.2855534,19.5352 C34.7283089,20.0924445 34.7283089,21.0037033 35.2855534,21.5609478 L36.8851731,23.1605675 C37.1539616,23.4293561 37.5145316,23.5801399 37.8947691,23.5801399 C38.2750066,23.5801399 38.6355766,23.4293561 38.9043651,23.1605675 L40.5039848,21.5609478 C41.0612293,21.0102591 41.0612293,20.1055562 40.497429,19.5417558 L40.497429,19.5417558 Z M21.6101165,37.9570494 L20.4890716,39.0780943 L19.3680266,37.9570494 L20.4890716,36.8360045 L21.6101165,37.9570494 L21.6101165,37.9570494 Z M28.2446046,11.0388595 C28.4085,10.874964 28.6313979,10.7831826 28.8674073,10.7831826 C29.1034168,10.7831826 29.3263146,10.874964 29.4902101,11.0388595 C29.6541055,11.2027549 29.745887,11.4256528 29.745887,11.6616622 C29.745887,11.8976717 29.6541055,12.1205695 29.4902101,12.284465 C29.3263146,12.4483604 29.1034168,12.5401419 28.8674073,12.5401419 C28.6313979,12.5401419 28.4085,12.4483604 28.2446046,12.284465 L28.2446046,12.284465 L28.2446046,12.284465 C28.0807091,12.1205695 27.9889277,11.8976717 27.9889277,11.6616622 C27.9889277,11.4256528 28.0807091,11.2093108 28.2446046,11.0388595 L28.2446046,11.0388595 Z M12.2746312,29.5065996 C12.1107358,29.6704951 11.887838,29.7622765 11.6518285,29.7622765 C11.415819,29.7622765 11.1929212,29.6704951 11.0290258,29.5065996 C10.6815674,29.1591412 10.6815674,28.6018967 11.0290258,28.2609941 C11.1929212,28.0970987 11.415819,28.0053172 11.6518285,28.0053172 C11.887838,28.0053172 12.1107358,28.0970987 12.2746312,28.2609941 C12.6220896,28.6018967 12.6220896,29.1656971 12.2746312,29.5065996 L12.2746312,29.5065996 Z M20.2596179,21.3904966 L19.138573,20.2694516 L20.2596179,19.1484067 L20.8168625,19.7056513 L20.8168625,19.7056513 L20.8168625,19.7056513 L21.374107,20.2628958 L20.2596179,21.3904966 L20.2596179,21.3904966 Z M37.8882133,21.6723968 L36.7671684,20.5513518 L37.8882133,19.4303069 L39.0092582,20.5513518 L37.8882133,21.6723968 L37.8882133,21.6723968 Z" id="Shape" stroke="#589DFF" stroke-width="0.5" fill="#FFFFFF"></path>
                    </g>
                </g>
            </g>
        </g>
    </g>
</svg>