<?xml version="1.0" encoding="UTF-8" standalone="no"?>
<svg width="27px" height="27px" viewBox="0 0 27 27" version="1.1" xmlns="http://www.w3.org/2000/svg" xmlns:xlink="http://www.w3.org/1999/xlink">
    <!-- Generator: Sketch 3.6.1 (26313) - http://www.bohemiancoding.com/sketch -->
    <title>Group 6</title>
    <desc>Created with Sketch.</desc>
    <defs></defs>
    <g id="Welcome" stroke="none" stroke-width="1" fill="none" fill-rule="evenodd">
        <g id="Home-o-qué?-Copy-2" transform="translate(-392.000000, -1471.000000)" fill="#A0C7FF">
            <g id="Proyectos" transform="translate(0.000000, 959.000000)">
                <g id="Group-6" transform="translate(392.000000, 512.000000)">
                    <path d="M13.5669137,26.8995131 C20.8726956,26.8995131 26.8167489,20.9371148 26.8167489,13.6087851 C26.8167489,6.2804555 20.8726956,0.318057136 13.5669137,0.318057136 C6.26113185,0.318057136 0.317078541,6.2804555 0.317078541,13.6087851 C0.317078541,20.9371148 6.26113185,26.8995131 13.5669137,26.8995131 L13.5669137,26.8995131 Z M13.5669137,1.64604586 C20.1431982,1.64604586 25.4928462,7.01220439 25.4928462,13.6087851 C25.4928462,20.2053659 20.1431982,25.5715244 13.5669137,25.5715244 C6.9906293,25.5715244 1.64098132,20.2053659 1.64098132,13.6087851 C1.64098132,7.01220439 6.9906293,1.64604586 13.5669137,1.64604586 L13.5669137,1.64604586 Z" id="Shape"></path>
                    <path d="M8.53750837,14.1914387 L17.198475,14.1914387 L14.9317007,16.4652089 C14.7050233,16.6925859 14.7050233,17.0573365 14.9317007,17.2847136 C15.0450395,17.3984021 15.1914353,17.4552463 15.3425536,17.4552463 C15.4936719,17.4552463 15.6400677,17.3984021 15.7534064,17.2847136 L19.0071719,14.020906 C19.2338494,13.793529 19.2338494,13.4287783 19.0071719,13.2014013 L15.7534064,9.93759372 C15.526729,9.7102167 15.1631006,9.7102167 14.9364232,9.93759372 C14.7097458,10.1649707 14.7097458,10.5297214 14.9364232,10.7570984 L17.2031974,13.0308685 L8.53750837,13.0308685 C8.21638202,13.0308685 7.95664747,13.2914047 7.95664747,13.6135222 C7.95664747,13.9356396 8.21638202,14.1914387 8.53750837,14.1914387 L8.53750837,14.1914387 Z" id="Shape"></path>
                </g>
            </g>
        </g>
    </g>
</svg>