<?xml version="1.0" encoding="UTF-8" standalone="no"?>
<svg width="28px" height="28px" viewBox="0 0 28 28" version="1.1" xmlns="http://www.w3.org/2000/svg" xmlns:xlink="http://www.w3.org/1999/xlink">
    <!-- Generator: Sketch 3.6.1 (26313) - http://www.bohemiancoding.com/sketch -->
    <title>Group 3</title>
    <desc>Created with Sketch.</desc>
    <defs></defs>
    <g id="Welcome" stroke="none" stroke-width="1" fill="none" fill-rule="evenodd">
        <g id="Home-o-qué?-Copy-2" transform="translate(-454.000000, -1623.000000)" fill="#FFFFFF">
            <g id="Proyectos" transform="translate(0.000000, 959.000000)">
                <g id="Group-3" transform="translate(454.000000, 664.000000)">
                    <path d="M13.725528,27.5357778 C21.2936005,27.5357778 27.4510559,21.3593187 27.4510559,13.7678889 C27.4510559,6.17645913 21.2936005,7.10542736e-15 13.725528,7.10542736e-15 C6.15745545,7.10542736e-15 -8.10018719e-13,6.17645913 -8.10018719e-13,13.7678889 C-8.10018719e-13,21.3593187 6.15745545,27.5357778 13.725528,27.5357778 L13.725528,27.5357778 Z M19.1602237,15.7642296 C18.9939536,15.6472111 18.492754,15.2996658 17.6565993,14.7217732 C16.8204188,14.1438806 16.1798473,13.6989181 15.7348589,13.3868602 C15.6859695,13.352654 15.5821021,13.2782972 15.4232052,13.1636872 C15.2642826,13.0490003 15.1322325,12.9563233 15.0271576,12.8856305 C14.9220056,12.8149633 14.7948881,12.7356869 14.6456766,12.6479294 C14.4965165,12.5602488 14.3559114,12.4942962 14.2238869,12.4506352 C14.0918368,12.4066156 13.9696005,12.3848107 13.8571524,12.3848107 L13.8497792,12.3848107 L13.8423803,12.3848107 C13.7299321,12.3848107 13.6076445,12.4066412 13.4755944,12.4506352 C13.3436213,12.4942962 13.2028877,12.5603257 13.0538561,12.6479294 C12.9047473,12.7357894 12.7776298,12.8149889 12.6724778,12.8856305 C12.5673259,12.9563233 12.4353785,13.0490003 12.2764045,13.1636872 C12.1175333,13.2783997 12.0135374,13.352654 11.9646481,13.3868602 C11.5148555,13.6989181 10.3705153,14.4914515 8.53198712,15.7643833 C8.17504074,16.0129996 7.87682326,16.3129893 7.63725762,16.6641473 C7.39751214,17.0151516 7.27776786,17.3833743 7.27776786,17.7686104 C7.27776786,18.0905331 7.39396683,18.3661044 7.62626201,18.5952987 C7.85853149,18.8245443 8.13362735,18.939103 8.45136975,18.939103 L19.2482657,18.939103 C19.6247627,18.939103 19.9145022,18.8123223 20.117433,18.5587608 C20.320338,18.3051481 20.4217905,17.9881451 20.4217905,17.6077772 C20.4217905,17.3005364 20.2872741,16.967596 20.0183697,16.6091612 C19.749491,16.2507007 19.4633481,15.9690312 19.1602237,15.7642296 Z M8.01136538,14.717759 C9.61508073,13.6351776 10.8328192,12.7938332 11.66399,12.1939051 C11.9427082,11.9891547 12.1688119,11.8293208 12.3424553,11.7147877 C12.5160986,11.6001777 12.7470322,11.4831336 13.03559,11.3637065 C13.324045,11.2441001 13.5928723,11.1844763 13.8423032,11.1844763 L13.8497792,11.1844763 L13.8571524,11.1844763 C14.1065319,11.1844763 14.3755134,11.2441001 14.6639684,11.3637065 C14.9524234,11.4831336 15.1835111,11.6001777 15.3571031,11.7147877 C15.5306437,11.8293208 15.7568245,11.9891547 16.035517,12.1939051 C16.6956906,12.6766865 17.9108086,13.5180822 19.6809225,14.717759 C19.9597178,14.9029593 20.2066567,15.1152427 20.4218162,15.3541737 L20.4218162,9.54590961 C20.4218162,9.22383325 20.3069531,8.94841569 20.0770986,8.71919571 C19.8472954,8.48989886 19.5709664,8.37528888 19.2482143,8.37528888 L8.45129268,8.37528888 C8.12861767,8.37528888 7.85231435,8.48989886 7.62248547,8.71919571 C7.39257953,8.94849255 7.27776786,9.22380763 7.27776786,9.54590961 L7.27776786,15.3541737 C7.48807181,15.1201879 7.73249299,14.9079045 8.01136538,14.717759 Z" id="Shape" transform="translate(13.725528, 13.767889) rotate(-180.000000) translate(-13.725528, -13.767889) "></path>
                </g>
            </g>
        </g>
    </g>
</svg>