<?xml version="1.0" encoding="UTF-8" standalone="no"?>
<svg width="50px" height="50px" viewBox="0 0 50 50" version="1.1" xmlns="http://www.w3.org/2000/svg" xmlns:xlink="http://www.w3.org/1999/xlink">
    <!-- Generator: Sketch 3.6.1 (26313) - http://www.bohemiancoding.com/sketch -->
    <title>Group 31</title>
    <desc>Created with Sketch.</desc>
    <defs></defs>
    <g id="Welcome" stroke="none" stroke-width="1" fill="none" fill-rule="evenodd">
        <g id="Home-o-qué?-Copy-2" transform="translate(-695.000000, -2640.000000)">
            <g id="Info" transform="translate(0.000000, 2322.000000)">
                <g id="1" transform="translate(533.000000, 304.000000)">
                    <g id="Group-31" transform="translate(162.000000, 14.000000)">
                        <rect id="Rectangle-355" fill="#589DFF" x="0" y="0" width="50" height="50"></rect>
                        <g id="pencil" transform="translate(15.470494, 8.257576)" fill="#FFFFFF">
                            <g id="Capa_1">
                                <g id="Group">
                                    <path d="M19.0002102,13.8180272 L17.023911,13.8180272 L17.023911,12.2634991 C17.023911,11.9773278 16.7911238,11.7453231 16.5038323,11.7453231 L15.2903152,11.7453231 L15.2903152,3.83450255 C15.2903152,3.81723002 15.2894137,3.80002657 15.2876801,3.78289222 C15.2862932,3.76879783 15.2839355,3.75504889 15.2814392,3.74129996 C15.2808844,3.73839817 15.2806764,3.73549639 15.2801216,3.7325946 C15.2729792,3.69708227 15.2622309,3.66281356 15.2482235,3.6303412 L13.8634271,0.318920068 C13.7827109,0.125813138 13.5932636,0 13.3833598,0 C13.173456,0 12.9840086,0.125813138 12.9032924,0.318850978 L11.5184267,3.63041029 C11.5044193,3.66288265 11.4937403,3.69701318 11.4865979,3.73252551 C11.4859738,3.73570366 11.4856964,3.73901998 11.4851417,3.74219813 C11.4827147,3.75560162 11.4804263,3.76907419 11.4790394,3.78282313 C11.4773058,3.79995748 11.4764044,3.81716093 11.4764044,3.83443346 L11.4764044,11.7453231 L10.4362469,11.7453231 L10.4362469,1.34725765 C10.4362469,0.60440051 9.82962702,0 9.08404212,0 L7.9745408,0 C7.2289559,0 6.62233605,0.60440051 6.62233605,1.34725765 L6.62233605,11.7453231 L5.58217856,11.7453231 L5.58217856,3.83450255 C5.58217856,3.81723002 5.58127709,3.80002657 5.57954349,3.78289222 C5.57815661,3.76914328 5.57586827,3.75567071 5.57344123,3.74226722 C5.57281714,3.73901998 5.57260911,3.73577275 5.57198501,3.7325946 C5.5648426,3.69708227 5.55416365,3.66295174 5.54015619,3.63047938 L4.15529051,0.318850978 C4.07450494,0.125813138 3.88519628,0 3.67522315,0 C3.46525002,0 3.27594136,0.125813138 3.19515579,0.318850978 L1.8102901,3.63041029 C1.79628265,3.66288265 1.7856037,3.69701318 1.77846129,3.73252551 C1.77783719,3.73570366 1.77755982,3.73901998 1.77700506,3.74219813 C1.77457803,3.75560162 1.77228968,3.76907419 1.77090281,3.78282313 C1.76916921,3.80002657 1.76826774,3.81723002 1.76826774,3.83450255 L1.76826774,11.7453231 L0.554750664,11.7453231 C0.267528508,11.7453231 0.0346719165,11.9773278 0.0346719165,12.2634991 L0.0346719165,31.9541879 C0.0346719165,32.2403593 0.267528508,32.4723639 0.554750664,32.4723639 L16.5038323,32.4723639 C16.7911238,32.4723639 17.023911,32.2403593 17.023911,31.9541879 L17.023911,28.3269558 L19.0002102,28.3269558 C21.351729,28.3269558 23.264856,26.420828 23.264856,24.0779124 L23.264856,18.0670706 C23.264856,15.724155 21.351729,13.8180272 19.0002102,13.8180272 L19.0002102,13.8180272 Z M13.3833598,1.86543367 L13.9901183,3.31632653 L12.7766012,3.31632653 L13.3833598,1.86543367 L13.3833598,1.86543367 Z M12.5165619,4.35267857 L14.2501577,4.35267857 L14.2501577,11.7453231 L12.5165619,11.7453231 L12.5165619,4.35267857 L12.5165619,4.35267857 Z M7.66249355,3.31632653 L9.39608937,3.31632653 L9.39608937,4.35267857 L7.66249355,4.35267857 L7.66249355,3.31632653 L7.66249355,3.31632653 Z M7.9745408,1.03635204 L9.08404212,1.03635204 C9.25317173,1.03635204 9.39608937,1.17874681 9.39608937,1.34725765 L9.39608937,2.27997449 L7.66249355,2.27997449 L7.66249355,1.34725765 C7.66249355,1.17874681 7.80541119,1.03635204 7.9745408,1.03635204 L7.9745408,1.03635204 Z M7.66249355,5.38903061 L9.39608937,5.38903061 L9.39608937,11.7453231 L7.66249355,11.7453231 L7.66249355,5.38903061 L7.66249355,5.38903061 Z M3.67522315,1.86543367 L4.28198169,3.31632653 L3.06846461,3.31632653 L3.67522315,1.86543367 L3.67522315,1.86543367 Z M2.80842524,4.35267857 L4.54202106,4.35267857 L4.54202106,11.7453231 L2.80842524,11.7453231 L2.80842524,4.35267857 L2.80842524,4.35267857 Z M22.2246985,24.0779124 C22.2246985,25.8493835 20.7782555,27.2906037 19.0002102,27.2906037 L16.5038323,27.2906037 C16.2165408,27.2906037 15.9837535,27.5226084 15.9837535,27.8087798 L15.9837535,31.4360119 L1.07482941,31.4360119 L1.07482941,12.7816752 L15.9837535,12.7816752 L15.9837535,14.3362032 C15.9837535,14.6223746 16.2165408,14.8543793 16.5038323,14.8543793 L19.0002102,14.8543793 C20.7782555,14.8543793 22.2246985,16.2955995 22.2246985,18.0670706 L22.2246985,24.0779124 L22.2246985,24.0779124 Z" id="Shape"></path>
                                    <path d="M3.32850398,14.5089286 C3.04128183,14.5089286 2.80842524,14.7409332 2.80842524,15.0271046 L2.80842524,17.0998087 C2.80842524,17.38598 3.04128183,17.6179847 3.32850398,17.6179847 C3.61572614,17.6179847 3.84858273,17.38598 3.84858273,17.0998087 L3.84858273,15.0271046 C3.84858273,14.7409332 3.61572614,14.5089286 3.32850398,14.5089286 L3.32850398,14.5089286 Z" id="Shape"></path>
                                    <path d="M3.32850398,18.6543367 C3.04128183,18.6543367 2.80842524,18.8863414 2.80842524,19.1725128 L2.80842524,29.1905825 C2.80842524,29.4767538 3.04128183,29.7087585 3.32850398,29.7087585 C3.61572614,29.7087585 3.84858273,29.4767538 3.84858273,29.1905825 L3.84858273,19.1725128 C3.84858273,18.8863414 3.61572614,18.6543367 3.32850398,18.6543367 L3.32850398,18.6543367 Z" id="Shape"></path>
                                    <path d="M19.0002102,16.5816327 L17.023911,16.5816327 L17.023911,16.4089073 C17.023911,16.122736 16.7911238,15.8907313 16.5038323,15.8907313 C16.2165408,15.8907313 15.9837535,16.122736 15.9837535,16.4089073 L15.9837535,25.7360757 C15.9837535,26.022247 16.2165408,26.2542517 16.5038323,26.2542517 C16.7911238,26.2542517 17.023911,26.022247 17.023911,25.7360757 L17.023911,25.5633503 L19.0002102,25.5633503 C19.8222814,25.5633503 20.4911027,24.896976 20.4911027,24.0779124 L20.4911027,18.0670706 C20.4911027,17.248007 19.8222814,16.5816327 19.0002102,16.5816327 L19.0002102,16.5816327 Z M19.4509452,24.0779124 C19.4509452,24.3255315 19.2487385,24.5269983 19.0002102,24.5269983 L17.023911,24.5269983 L17.023911,17.6179847 L19.0002102,17.6179847 C19.2487385,17.6179847 19.4509452,17.8194515 19.4509452,18.0670706 L19.4509452,24.0779124 L19.4509452,24.0779124 Z" id="Shape"></path>
                                </g>
                            </g>
                        </g>
                    </g>
                </g>
            </g>
        </g>
    </g>
</svg>