<?xml version="1.0" encoding="UTF-8" standalone="no"?>
<svg width="75px" height="75px" viewBox="0 0 75 75" version="1.1" xmlns="http://www.w3.org/2000/svg" xmlns:xlink="http://www.w3.org/1999/xlink">
    <!-- Generator: Sketch 3.6.1 (26313) - http://www.bohemiancoding.com/sketch -->
    <title>Logo</title>
    <desc>Created with Sketch.</desc>
    <defs></defs>
    <g id="Welcome" stroke="none" stroke-width="1" fill="none" fill-rule="evenodd">
        <g id="Home-o-qué?-Copy-2" transform="translate(-683.000000, -3110.000000)">
            <g id="Contacto" transform="translate(0.000000, 3110.000000)">
                <g id="Logo" transform="translate(683.000000, 0.000000)">
                    <path d="M0,74.5086735 L74.5091837,74.5086735 L74.5091837,0 L0,0 L0,74.5086735 Z" id="Fill-1" fill="#589DFF"></path>
                    <path d="M14.6197959,35.9175 L22.9203061,27.4996429 L21.3595918,27.4996429 L10.0330612,38.9960714 L10.0330612,27.4996429 L8.82438776,27.4996429 L8.82438776,48.4328061 L10.0330612,48.4328061 L10.0330612,40.5904592 L13.8228571,36.7445408 L22.6754082,48.4328061 L24.1157143,48.4328061 L14.6197959,35.9175 Z" id="Fill-2" fill="#FFFFFF"></path>
                    <path d="M25.7270408,48.4331633 L26.9071429,48.4331633 L26.9071429,27.5 L25.7270408,27.5 L25.7270408,48.4331633 Z" id="Fill-3" fill="#FFFFFF"></path>
                    <g id="Group-8" transform="translate(31.122449, 26.549490)" fill="#FFFFFF">
                        <path d="M6.32423469,10.5105102 L1.63035714,10.5105102 L1.63035714,2.04265306 L6.26658163,2.04265306 C8.2747449,2.04265306 9.75076531,2.25234694 10.6538265,2.66663265 C12.0038265,3.27683673 12.6880102,4.44265306 12.6880102,6.13295918 C12.6880102,9.07836735 10.6063776,10.5105102 6.32423469,10.5105102 L6.32423469,10.5105102 Z M1.63035714,11.4880612 L6.67015306,11.4880612 C8.77372449,11.4880612 10.3844388,11.7462245 11.4584184,12.254898 C12.9630102,12.9610204 13.7252551,14.2431633 13.7252551,16.0671429 C13.7252551,18.1936735 12.8966837,19.6115306 11.2619898,20.2793878 C10.4364796,20.6181633 8.88137755,20.7906122 6.64107143,20.7906122 L1.63035714,20.7906122 L1.63035714,11.4880612 Z M10.6461735,10.882449 C12.8043367,10.0089796 13.8977041,8.43193878 13.8977041,6.19010204 C13.8977041,4.1977551 13.132398,2.74010204 11.6242347,1.85795918 C10.6125,1.25540816 8.79056122,0.950306122 6.20892857,0.950306122 L0.421683673,0.950306122 L0.421683673,21.8834694 L6.84209184,21.8834694 C9.50076531,21.8834694 11.4196429,21.5385714 12.5471939,20.8579592 C14.1502551,19.8615306 14.9630102,18.3079592 14.9630102,16.2395918 C14.9630102,13.3605102 13.5109694,11.56 10.6461735,10.882449 L10.6461735,10.882449 Z" id="Fill-4"></path>
                        <path d="M27.1733673,21.2506633 C24.4595918,21.2506633 22.3784694,20.2593367 20.9886735,18.3047449 C19.7611224,16.5685204 19.1386735,14.2557653 19.1386735,11.4302551 C19.1386735,8.60678571 19.7611224,6.29403061 20.9881633,4.55729592 C22.3988776,2.58331633 24.48,1.58229592 27.1733673,1.58229592 C29.8657143,1.58229592 31.9458163,2.58331633 33.3570408,4.55729592 C34.6034694,6.29556122 35.2361224,8.60780612 35.2361224,11.4302551 C35.2361224,14.2710714 34.6131633,16.5843367 33.385102,18.3042347 C31.9937755,20.2593367 29.9034694,21.2506633 27.1733673,21.2506633 M34.2907143,3.73076531 C32.6626531,1.57923469 30.2682653,0.488928571 27.1733673,0.488928571 C24.0978571,0.488928571 21.7121429,1.58943878 20.082551,3.76086735 C18.6345918,5.71137755 17.9004082,8.2919898 17.9004082,11.4302551 C17.9004082,14.6078061 18.6345918,17.1889286 20.0830612,19.1027041 C21.6917347,21.2348469 24.077449,22.3159694 27.1733673,22.3159694 C30.2677551,22.3159694 32.6621429,21.2353571 34.2907143,19.1027041 C35.7391837,17.1889286 36.4738776,14.6078061 36.4738776,11.4302551 C36.4738776,8.27311224 35.7391837,5.68280612 34.2907143,3.73076531" id="Fill-6"></path>
                    </g>
                </g>
            </g>
        </g>
    </g>
</svg>