<?xml version="1.0" encoding="UTF-8" standalone="no"?>
<svg width="20px" height="27px" viewBox="0 0 20 27" version="1.1" xmlns="http://www.w3.org/2000/svg" xmlns:xlink="http://www.w3.org/1999/xlink">
    <!-- Generator: Sketch 3.6.1 (26313) - http://www.bohemiancoding.com/sketch -->
    <title>Shape</title>
    <desc>Created with Sketch.</desc>
    <defs></defs>
    <g id="Welcome" stroke="none" stroke-width="1" fill="none" fill-rule="evenodd">
        <g id="Home-o-qué?-Copy-2" transform="translate(-968.000000, -3359.000000)" fill="#71ACFF">
            <g id="Contacto" transform="translate(0.000000, 3110.000000)">
                <g id="Info-contacto" transform="translate(278.000000, 112.000000)">
                    <g id="Marbella" transform="translate(511.000000, 137.000000)">
                        <path d="M195.575417,2.76422398 L195.575417,2.76422398 C191.944178,-0.921327865 186.056333,-0.921327865 182.424583,2.76422398 L182.424583,2.76422398 C179.152478,6.0852707 178.784136,12.3384548 181.561026,16.0961807 L189,27.0001803 L196.438974,16.0961807 C199.215864,12.3384548 198.847522,6.0852707 195.575417,2.76422398 L195.575417,2.76422398 Z M189.090551,12.4615142 C187.395154,12.4615142 186.021034,11.0668408 186.021034,9.3460858 C186.021034,7.62533082 187.395154,6.23065736 189.090551,6.23065736 C190.785947,6.23065736 192.160068,7.62533082 192.160068,9.3460858 C192.160068,11.0668408 190.785947,12.4615142 189.090551,12.4615142 L189.090551,12.4615142 Z" id="Shape"></path>
                    </g>
                </g>
            </g>
        </g>
    </g>
</svg>