<?xml version="1.0" encoding="UTF-8" standalone="no"?>
<svg width="30px" height="30px" viewBox="0 0 30 30" version="1.1" xmlns="http://www.w3.org/2000/svg" xmlns:xlink="http://www.w3.org/1999/xlink">
    <!-- Generator: Sketch 3.6.1 (26313) - http://www.bohemiancoding.com/sketch -->
    <title>Capa_1</title>
    <desc>Created with Sketch.</desc>
    <defs></defs>
    <g id="Welcome" stroke="none" stroke-width="1" fill="none" fill-rule="evenodd">
        <g id="Group-21-Copy-6" transform="translate(-178.000000, -284.000000)" fill="#FFFFFF">
            <g id="Group-22" transform="translate(59.000000, 72.000000)">
                <g id="right-arrow-(2)" transform="translate(134.000000, 227.000000) scale(-1, 1) rotate(-180.000000) translate(-134.000000, -227.000000) translate(119.000000, 212.000000)">
                    <g id="Capa_1" transform="translate(0.000000, -0.000000)">
                        <g id="Group" transform="translate(-0.000000, 0.000000)">
                            <path d="M14.9816701,29.9633401 C23.2423625,29.9633401 29.9633401,23.2423625 29.9633401,14.9816701 C29.9633401,6.7209776 23.2423625,0 14.9816701,0 C6.7209776,0 0,6.7209776 0,14.9816701 C0,23.2423625 6.7209776,29.9633401 14.9816701,29.9633401 L14.9816701,29.9633401 Z M14.9816701,1.49694501 C22.4175153,1.49694501 28.4663951,7.54582485 28.4663951,14.9816701 C28.4663951,22.4175153 22.4175153,28.4663951 14.9816701,28.4663951 C7.54582485,28.4663951 1.49694501,22.4175153 1.49694501,14.9816701 C1.49694501,7.54582485 7.54582485,1.49694501 14.9816701,1.49694501 L14.9816701,1.49694501 Z" id="Shape"></path>
                            <path d="M8.47454175,15.7331976 L19.6802444,15.7331976 L16.7474542,18.6659878 C16.4541752,18.9592668 16.4541752,19.4297352 16.7474542,19.7230143 C16.8940937,19.8696538 17.0835031,19.9429735 17.2790224,19.9429735 C17.4745418,19.9429735 17.6639511,19.8696538 17.8105906,19.7230143 L22.0203666,15.5132383 C22.3136456,15.2199593 22.3136456,14.7494908 22.0203666,14.4562118 L17.8105906,10.2464358 C17.5173116,9.95315682 17.0468432,9.95315682 16.7535642,10.2464358 C16.4602851,10.5397149 16.4602851,11.0101833 16.7535642,11.3034623 L19.6863544,14.2362525 L8.47454175,14.2362525 C8.05906314,14.2362525 7.72301426,14.5723014 7.72301426,14.98778 C7.72301426,15.4032587 8.05906314,15.7331976 8.47454175,15.7331976 L8.47454175,15.7331976 Z" id="Shape"></path>
                        </g>
                    </g>
                </g>
            </g>
        </g>
    </g>
</svg>